<?xml version="1.0" encoding="utf-8"?>
<!-- Generator: Adobe Illustrator 19.0.0, SVG Export Plug-In . SVG Version: 6.00 Build 0)  -->
<svg version="1.1" id="Livello_1" xmlns="http://www.w3.org/2000/svg" xmlns:xlink="http://www.w3.org/1999/xlink" x="0px" y="0px"
	 viewBox="0 0 100 100" style="enable-background:new 0 0 100 100;" xml:space="preserve">
<style type="text/css">
	.st0{fill:#B5A200;stroke:#B5A200;stroke-width:0.5;stroke-miterlimit:10;}
</style>
<g id="XMLID_106_">
	<path id="XMLID_107_" class="st0" d="M26,31.8v33H56v9H14v-9h6v-33c0-1.7,0.6-3.1,1.8-4.3c1.2-1.2,2.6-1.8,4.1-1.8h54v6H26z
		 M83,37.8c0.7,0,1.4,0.3,2,0.8c0.6,0.6,0.9,1.3,0.9,2.1v30c0,0.8-0.3,1.6-0.9,2.2c-0.6,0.6-1.3,0.9-2,0.9H65
		c-0.8,0-1.6-0.3-2.2-0.9c-0.6-0.6-0.9-1.3-0.9-2.2v-30c0-0.8,0.3-1.5,0.9-2.1c0.6-0.6,1.3-0.8,2.2-0.8H83z M80,64.8V43.7H68v21.1
		H80z"/>
</g>
</svg>
