<?xml version="1.0" encoding="utf-8"?>
<!-- Generator: Adobe Illustrator 19.0.0, SVG Export Plug-In . SVG Version: 6.00 Build 0)  -->
<svg version="1.1" id="Livello_1" xmlns="http://www.w3.org/2000/svg" xmlns:xlink="http://www.w3.org/1999/xlink" x="0px" y="0px"
	 viewBox="0 0 100 100" style="enable-background:new 0 0 100 100;" xml:space="preserve">
<style type="text/css">
	.st0{fill:#B5A200;stroke:#B5A200;stroke-width:0.5;stroke-miterlimit:10;}
</style>
<g id="XMLID_54_">
	<g id="XMLID_67_">
		<path id="XMLID_70_" class="st0" d="M72.3,53l6.3,4.9c0.7,0.6,0.8,1.2,0.4,2l-6,10.4c-0.4,0.8-1,0.9-1.8,0.6l-7.5-3
			c-1.7,1.2-3.4,2.2-5.1,3l-1.1,7.9C57.4,79.5,56.9,80,56,80H44c-0.8,0-1.4-0.4-1.5-1.3l-1.1-7.9c-1.8-0.7-3.5-1.7-5.1-3l-7.5,3
			c-0.8,0.3-1.5,0.1-1.8-0.6l-6-10.4c-0.4-0.7-0.2-1.4,0.4-2l6.3-4.9c-0.1-1.1-0.1-2.1-0.1-3s0-1.8,0.1-3l-6.3-4.9
			c-0.7-0.6-0.8-1.2-0.4-2l6-10.4c0.5-0.7,1.1-0.9,1.8-0.6l7.5,3c1.7-1.2,3.4-2.2,5.1-3l1.1-7.9c0.2-0.8,0.7-1.3,1.5-1.3h12
			c0.9,0,1.5,0.4,1.5,1.3l1.1,7.9c1.8,0.8,3.5,1.7,5.1,3l7.5-3c0.8-0.3,1.5-0.1,1.8,0.6l6,10.4c0.4,0.8,0.2,1.4-0.4,2L72.3,47
			c0.2,1.1,0.3,2.1,0.3,3S72.5,51.8,72.3,53z M42.6,57.5c2.1,2.1,4.5,3.1,7.4,3.1c2.9,0,5.3-1,7.4-3.1c2.1-2.1,3.1-4.5,3.1-7.5
			c0-2.9-1-5.4-3.1-7.5c-2.1-2.1-4.5-3.1-7.4-3.1c-2.9,0-5.3,1-7.4,3.1c-2.1,2.1-3.1,4.5-3.1,7.5C39.5,52.9,40.6,55.4,42.6,57.5z"/>
		<path id="XMLID_73_" class="st0" d="M56,80.2H44c-1,0-1.6-0.5-1.8-1.5L41.1,71c-1.7-0.7-3.3-1.7-4.9-2.8L28.9,71
			c-1.2,0.4-1.8-0.1-2.1-0.7l-6-10.4c-0.4-0.9-0.3-1.6,0.5-2.3l6.2-4.8c-0.1-1.1-0.1-2-0.1-2.8s0-1.8,0.1-2.8l-6.2-4.8
			c-0.7-0.6-0.9-1.4-0.5-2.3l6.1-10.4c0.5-0.9,1.3-1.1,2.2-0.7l7.3,2.9c1.6-1.2,3.3-2.1,4.9-2.8l1.1-7.7c0.2-1,0.8-1.5,1.8-1.5h12
			c1.3,0,1.7,0.8,1.8,1.5l1.1,7.7c1.7,0.7,3.3,1.7,4.9,2.8l7.3-2.9c1.2-0.4,1.8,0.1,2.1,0.7l6,10.4c0.4,0.9,0.3,1.6-0.5,2.3
			l-6.2,4.8c0.2,1.1,0.3,2,0.3,2.8s-0.1,1.8-0.3,2.8l6.2,4.8c0.7,0.6,0.9,1.4,0.5,2.3l-6.1,10.4c-0.3,0.6-0.9,1.2-2.1,0.7l-7.3-2.9
			c-1.6,1.2-3.3,2.1-4.9,2.8l-1.1,7.7C57.7,79.4,57.3,80.2,56,80.2z M36.3,67.6l0.1,0.1c1.6,1.2,3.3,2.2,5,2.9l0.1,0.1l1.1,8
			c0.2,0.7,0.6,1.1,1.3,1.1h12c0.8,0,1.2-0.3,1.3-1l1.1-8l0.1-0.1c1.7-0.7,3.4-1.7,5-2.9l0.1-0.1l7.6,3c0.7,0.3,1.2,0.2,1.5-0.4
			l6.1-10.4c0.3-0.6,0.2-1.2-0.4-1.7l-6.4-5l0-0.1c0.2-1.1,0.3-2.1,0.3-2.9s-0.1-1.8-0.3-2.9l0-0.1l6.4-5c0.6-0.5,0.7-1,0.4-1.7
			l-6-10.4c-0.3-0.6-0.8-0.7-1.5-0.5l-7.6,3l-0.1-0.1c-1.6-1.2-3.3-2.2-5-2.9l-0.1-0.1l-1.1-8c-0.1-0.7-0.5-1.1-1.3-1.1H44
			c-0.7,0-1.1,0.3-1.3,1.1l-1.1,8l-0.1,0.1c-1.7,0.7-3.4,1.7-5,2.9l-0.1,0.1l-7.6-3c-0.7-0.3-1.1-0.2-1.5,0.5l-6,10.4
			c-0.3,0.6-0.2,1.2,0.4,1.7l6.4,5l0,0.1c-0.1,1.1-0.1,2.1-0.1,2.9s0,1.8,0.1,2.9l0,0.1l-6.4,5c-0.6,0.5-0.7,1-0.4,1.7l6,10.4
			c0.2,0.3,0.6,0.8,1.5,0.5L36.3,67.6z M50,60.8c-2.9,0-5.5-1.1-7.6-3.2c-2.1-2.1-3.2-4.7-3.2-7.6c0-3,1.1-5.5,3.2-7.6
			s4.6-3.2,7.6-3.2c2.9,0,5.5,1.1,7.6,3.2c2.1,2.1,3.2,4.7,3.2,7.6c0,3-1.1,5.5-3.2,7.6C55.5,59.7,52.9,60.8,50,60.8z M50,39.7
			c-2.8,0-5.2,1-7.2,3s-3,4.5-3,7.3c0,2.8,1,5.3,3,7.3l0,0c2,2,4.4,3,7.2,3c2.8,0,5.2-1,7.2-3c2-2,3-4.5,3-7.3c0-2.8-1-5.3-3-7.3
			C55.2,40.7,52.8,39.7,50,39.7z"/>
	</g>
</g>
</svg>
