<?xml version="1.0" encoding="utf-8"?>
<!-- Generator: Adobe Illustrator 19.0.0, SVG Export Plug-In . SVG Version: 6.00 Build 0)  -->
<svg version="1.1" id="Livello_1" xmlns="http://www.w3.org/2000/svg" xmlns:xlink="http://www.w3.org/1999/xlink" x="0px" y="0px"
	 viewBox="0 0 100 100" style="enable-background:new 0 0 100 100;" xml:space="preserve">
<style type="text/css">
	.st0{fill:#B5A200;stroke:#B5A200;stroke-width:0.5;stroke-miterlimit:10;}
</style>
<g id="XMLID_67_">
	<g id="XMLID_68_">
		<path id="XMLID_54_" class="st0" d="M43.4,62.5l-4.2,4.2l-18-18l18-18l4.2,4.2L29.7,48.8L43.4,62.5z M59.1,62.5l13.8-13.8L59.1,35
			l4.2-4.2l18,18l-18,18L59.1,62.5z"/>
		<path id="XMLID_73_" class="st0" d="M63.3,67.1l-4.6-4.6l13.8-13.8L58.7,35l4.6-4.6l18.4,18.4L63.3,67.1z M59.4,62.5l3.9,3.9
			l17.6-17.6L63.3,31.1L59.4,35l13.8,13.8L59.4,62.5z M39.2,67.1L20.9,48.8l18.4-18.4l4.6,4.6L30,48.8l13.8,13.8L39.2,67.1z
			 M21.6,48.8l17.6,17.6l3.9-3.9L29.3,48.8L43.1,35l-3.9-3.9L21.6,48.8z"/>
	</g>
</g>
</svg>
