<?xml version="1.0" encoding="utf-8"?>
<!-- Generator: Adobe Illustrator 19.0.0, SVG Export Plug-In . SVG Version: 6.00 Build 0)  -->
<svg version="1.1" id="Livello_1" xmlns="http://www.w3.org/2000/svg" xmlns:xlink="http://www.w3.org/1999/xlink" x="0px" y="0px"
	 viewBox="0 0 100 100" style="enable-background:new 0 0 100 100;" xml:space="preserve">
<style type="text/css">
	.st0{fill:#B5A200;stroke:#B5A200;stroke-width:0.5;stroke-miterlimit:10;}
</style>
<g id="XMLID_67_">
	<path id="XMLID_107_" class="st0" d="M40.2,51.7c3.6-0.8,6.8-1.3,9.8-1.3s6.2,0.4,9.8,1.3c3.6,0.8,6.8,2.2,9.8,4.1
		c3,1.9,4.4,4.1,4.4,6.7v9H26v-9c0-2.5,1.5-4.8,4.4-6.7C33.4,53.9,36.7,52.6,40.2,51.7z M62.3,58.5c-4-1.5-8.1-2.3-12.2-2.3
		c-4.1,0-8.2,0.8-12.2,2.3c-4,1.5-6,2.9-6,4v3.2h36.6v-3.2C68.4,61.4,66.3,60.1,62.3,58.5z M41.5,27c2.3-2.3,5.2-3.5,8.5-3.5
		c3.3,0,6.2,1.2,8.5,3.5c2.3,2.3,3.5,5.2,3.5,8.5c0,3.3-1.2,6.2-3.5,8.5c-2.3,2.3-5.2,3.5-8.5,3.5c-3.3,0-6.2-1.2-8.5-3.5
		c-2.3-2.3-3.5-5.2-3.5-8.5C38,32.1,39.1,29.3,41.5,27z M54.4,31c-1.2-1.2-2.7-1.8-4.4-1.8c-1.7,0-3.2,0.6-4.4,1.8
		c-1.2,1.2-1.8,2.7-1.8,4.4c0,1.7,0.6,3.2,1.8,4.4c1.2,1.2,2.7,1.8,4.4,1.8c1.7,0,3.2-0.6,4.4-1.8c1.2-1.2,1.8-2.7,1.8-4.4
		C56.3,33.7,55.6,32.3,54.4,31z"/>
</g>
</svg>
